<svg id="visual" viewBox="0 0 960 540" width="960" height="540" xmlns="http://www.w3.org/2000/svg" xmlns:xlink="http://www.w3.org/1999/xlink" version="1.1"><rect x="0" y="0" width="960" height="540" fill="#001220"></rect><defs><linearGradient id="grad1_0" x1="43.8%" y1="0%" x2="100%" y2="100%"><stop offset="14.444444444444446%" stop-color="#fbae3c" stop-opacity="1"></stop><stop offset="85.55555555555554%" stop-color="#fbae3c" stop-opacity="1"></stop></linearGradient></defs><defs><linearGradient id="grad1_1" x1="43.8%" y1="0%" x2="100%" y2="100%"><stop offset="14.444444444444446%" stop-color="#fbae3c" stop-opacity="1"></stop><stop offset="85.55555555555554%" stop-color="#e1685e" stop-opacity="1"></stop></linearGradient></defs><defs><linearGradient id="grad1_2" x1="43.8%" y1="0%" x2="100%" y2="100%"><stop offset="14.444444444444446%" stop-color="#96446e" stop-opacity="1"></stop><stop offset="85.55555555555554%" stop-color="#e1685e" stop-opacity="1"></stop></linearGradient></defs><defs><linearGradient id="grad1_3" x1="43.8%" y1="0%" x2="100%" y2="100%"><stop offset="14.444444444444446%" stop-color="#96446e" stop-opacity="1"></stop><stop offset="85.55555555555554%" stop-color="#3d3056" stop-opacity="1"></stop></linearGradient></defs><defs><linearGradient id="grad1_4" x1="43.8%" y1="0%" x2="100%" y2="100%"><stop offset="14.444444444444446%" stop-color="#001220" stop-opacity="1"></stop><stop offset="85.55555555555554%" stop-color="#3d3056" stop-opacity="1"></stop></linearGradient></defs><defs><linearGradient id="grad2_0" x1="0%" y1="0%" x2="56.3%" y2="100%"><stop offset="14.444444444444446%" stop-color="#fbae3c" stop-opacity="1"></stop><stop offset="85.55555555555554%" stop-color="#fbae3c" stop-opacity="1"></stop></linearGradient></defs><defs><linearGradient id="grad2_1" x1="0%" y1="0%" x2="56.3%" y2="100%"><stop offset="14.444444444444446%" stop-color="#e1685e" stop-opacity="1"></stop><stop offset="85.55555555555554%" stop-color="#fbae3c" stop-opacity="1"></stop></linearGradient></defs><defs><linearGradient id="grad2_2" x1="0%" y1="0%" x2="56.3%" y2="100%"><stop offset="14.444444444444446%" stop-color="#e1685e" stop-opacity="1"></stop><stop offset="85.55555555555554%" stop-color="#96446e" stop-opacity="1"></stop></linearGradient></defs><defs><linearGradient id="grad2_3" x1="0%" y1="0%" x2="56.3%" y2="100%"><stop offset="14.444444444444446%" stop-color="#3d3056" stop-opacity="1"></stop><stop offset="85.55555555555554%" stop-color="#96446e" stop-opacity="1"></stop></linearGradient></defs><defs><linearGradient id="grad2_4" x1="0%" y1="0%" x2="56.3%" y2="100%"><stop offset="14.444444444444446%" stop-color="#3d3056" stop-opacity="1"></stop><stop offset="85.55555555555554%" stop-color="#001220" stop-opacity="1"></stop></linearGradient></defs><g transform="translate(960, 0)"><path d="M0 540C-46.1 533.9 -92.3 527.9 -138.7 517.7C-185.2 507.6 -231.9 493.4 -270 467.7C-308.1 441.9 -337.5 404.4 -370.5 370.5C-403.5 336.6 -440.1 306.2 -463.3 267.5C-486.6 228.8 -496.5 181.8 -507.1 135.9C-517.7 89.9 -528.8 45 -540 0L0 0Z" fill="#18223c"></path><path d="M0 432C-36.9 427.1 -73.8 422.3 -111 414.2C-148.1 406.1 -185.5 394.8 -216 374.1C-246.5 353.5 -270 323.6 -296.4 296.4C-322.8 269.3 -352.1 245 -370.7 214C-389.3 183 -397.2 145.5 -405.7 108.7C-414.1 71.9 -423.1 36 -432 0L0 0Z" fill="#683a67"></path><path d="M0 324C-27.7 320.4 -55.4 316.7 -83.2 310.6C-111.1 304.6 -139.1 296.1 -162 280.6C-184.9 265.1 -202.5 242.7 -222.3 222.3C-242.1 202 -264 183.7 -278 160.5C-291.9 137.3 -297.9 109.1 -304.3 81.5C-310.6 54 -317.3 27 -324 0L0 0Z" fill="#c0526a"></path><path d="M0 216C-18.5 213.6 -36.9 211.1 -55.5 207.1C-74.1 203 -92.8 197.4 -108 187.1C-123.2 176.7 -135 161.8 -148.2 148.2C-161.4 134.6 -176 122.5 -185.3 107C-194.6 91.5 -198.6 72.7 -202.8 54.4C-207.1 36 -211.5 18 -216 0L0 0Z" fill="#f6884d"></path><path d="M0 108C-9.2 106.8 -18.5 105.6 -27.7 103.5C-37 101.5 -46.4 98.7 -54 93.5C-61.6 88.4 -67.5 80.9 -74.1 74.1C-80.7 67.3 -88 61.2 -92.7 53.5C-97.3 45.8 -99.3 36.4 -101.4 27.2C-103.5 18 -105.8 9 -108 0L0 0Z" fill="#fbae3c"></path></g><g transform="translate(0, 540)"><path d="M0 -540C45.6 -526.9 91.3 -513.7 133.3 -497.5C175.3 -481.2 213.7 -461.8 256.5 -444.3C299.3 -426.8 346.6 -411.2 381.8 -381.8C417.1 -352.5 440.2 -309.3 462.5 -267C484.7 -224.7 505.9 -183.3 518.7 -139C531.5 -94.6 535.7 -47.3 540 0L0 0Z" fill="#18223c"></path><path d="M0 -432C36.5 -421.5 73 -411 106.6 -398C140.2 -384.9 170.9 -369.4 205.2 -355.4C239.5 -341.4 277.3 -329 305.5 -305.5C333.7 -282 352.2 -247.4 370 -213.6C387.7 -179.8 404.8 -146.7 415 -111.2C425.2 -75.7 428.6 -37.9 432 0L0 0Z" fill="#683a67"></path><path d="M0 -324C27.4 -316.1 54.8 -308.2 80 -298.5C105.2 -288.7 128.2 -277.1 153.9 -266.6C179.6 -256.1 208 -246.7 229.1 -229.1C250.2 -211.5 264.1 -185.6 277.5 -160.2C290.8 -134.8 303.6 -110 311.2 -83.4C318.9 -56.8 321.4 -28.4 324 0L0 0Z" fill="#c0526a"></path><path d="M0 -216C18.3 -210.7 36.5 -205.5 53.3 -199C70.1 -192.5 85.5 -184.7 102.6 -177.7C119.7 -170.7 138.6 -164.5 152.7 -152.7C166.8 -141 176.1 -123.7 185 -106.8C193.9 -89.9 202.4 -73.3 207.5 -55.6C212.6 -37.9 214.3 -18.9 216 0L0 0Z" fill="#f6884d"></path><path d="M0 -108C9.1 -105.4 18.3 -102.7 26.7 -99.5C35.1 -96.2 42.7 -92.4 51.3 -88.9C59.9 -85.4 69.3 -82.2 76.4 -76.4C83.4 -70.5 88 -61.9 92.5 -53.4C96.9 -44.9 101.2 -36.7 103.7 -27.8C106.3 -18.9 107.1 -9.5 108 0L0 0Z" fill="#fbae3c"></path></g></svg>