<svg id="visual" viewBox="0 0 960 540" width="960" height="540" xmlns="http://www.w3.org/2000/svg" xmlns:xlink="http://www.w3.org/1999/xlink" version="1.1"><rect x="0" y="0" width="960" height="540" fill="#002233"></rect><path d="M0 171L14.5 147.8C29 124.7 58 78.3 87.2 131.2C116.3 184 145.7 336 174.8 350C204 364 233 240 262 229.2C291 218.3 320 320.7 349 328.7C378 336.7 407 250.3 436.2 240.2C465.3 230 494.7 296 523.8 293.7C553 291.3 582 220.7 611 244.7C640 268.7 669 387.3 698 421.2C727 455 756 404 785.2 392.7C814.3 381.3 843.7 409.7 872.8 399.5C902 389.3 931 340.7 945.5 316.3L960 292L960 0L945.5 0C931 0 902 0 872.8 0C843.7 0 814.3 0 785.2 0C756 0 727 0 698 0C669 0 640 0 611 0C582 0 553 0 523.8 0C494.7 0 465.3 0 436.2 0C407 0 378 0 349 0C320 0 291 0 262 0C233 0 204 0 174.8 0C145.7 0 116.3 0 87.2 0C58 0 29 0 14.5 0L0 0Z" fill="#0066FF" stroke-linecap="round" stroke-linejoin="miter"></path></svg>