<?xml version="1.0" standalone="no"?>
<!DOCTYPE svg PUBLIC "-//W3C//DTD SVG 20010904//EN"
 "http://www.w3.org/TR/2001/REC-SVG-20010904/DTD/svg10.dtd">
<svg version="1.0" xmlns="http://www.w3.org/2000/svg"
 width="800.000000pt" height="800.000000pt" viewBox="0 0 800.000000 800.000000"
 preserveAspectRatio="xMidYMid meet">

<g transform="translate(0.000000,800.000000) scale(0.100000,-0.100000)"
fill="#000000" stroke="none">
<path d="M3755 5934 c-627 -76 -1186 -460 -1486 -1020 -27 -50 -49 -96 -49
-102 0 -7 17 -12 44 -12 l44 0 47 88 c223 411 605 730 1060 881 319 106 704
120 1035 36 334 -85 623 -248 860 -485 144 -144 233 -264 346 -467 29 -53 29
-53 77 -53 l49 0 -52 98 c-104 195 -201 325 -364 487 -303 302 -694 493 -1126
551 -129 17 -338 16 -485 -2z"/>
<path d="M3884 5728 c-225 -12 -431 -66 -639 -168 -322 -156 -570 -387 -755
-699 -16 -29 -30 -54 -30 -56 0 -3 13 -5 29 -5 25 0 35 9 71 68 82 132 126
188 235 297 307 309 659 473 1085 505 331 25 664 -50 965 -217 231 -129 463
-355 602 -588 35 -59 41 -65 71 -65 l34 0 -32 56 c-183 325 -525 621 -875 757
-102 40 -280 89 -370 102 -95 14 -270 20 -391 13z"/>
<path d="M3964 5378 c-27 -57 -42 -67 -94 -68 -54 -1 -57 -16 -14 -59 l41 -39
-8 -58 c-4 -32 -6 -60 -4 -62 1 -2 27 9 55 23 l53 27 47 -26 c26 -14 51 -26
55 -26 3 0 4 28 0 63 l-7 62 41 39 c44 43 41 55 -14 56 -57 1 -70 10 -97 68
l-26 57 -28 -57z"/>
<path d="M3324 5119 l-29 -54 -64 -10 -63 -10 46 -45 c37 -36 45 -50 42 -70
-3 -14 -8 -42 -12 -63 l-7 -39 51 26 c64 32 73 32 129 -1 l45 -26 -7 64 -7 64
41 40 c23 21 41 42 41 46 0 3 -27 9 -60 13 l-60 7 -29 56 -28 56 -29 -54z"/>
<path d="M4604 5119 l-29 -54 -64 -10 -63 -10 46 -45 c37 -36 45 -50 42 -70
-3 -14 -8 -42 -12 -63 l-7 -39 51 26 c64 32 73 32 129 -1 l45 -26 -7 64 -7 64
41 40 c23 21 41 42 41 46 0 3 -27 9 -60 13 l-60 7 -29 56 -28 56 -29 -54z"/>
<path d="M1600 4040 l0 -600 2400 0 2400 0 0 600 0 600 -2400 0 -2400 0 0
-600z m3064 218 c3 -35 9 -155 13 -267 6 -196 6 -203 -13 -199 -18 3 -19 18
-25 248 -4 135 -10 253 -14 263 -5 13 -2 17 13 17 16 0 20 -9 26 -62z m-253
21 c93 32 179 1 179 -66 0 -60 -63 -123 -181 -183 l-39 -20 0 -115 c0 -90 -3
-115 -14 -115 -13 0 -26 78 -26 163 l0 40 -45 -6 c-26 -2 -48 -6 -50 -8 -2 -2
6 -43 18 -92 16 -65 18 -90 10 -98 -9 -9 -18 8 -36 67 -24 78 -24 79 -56 76
-55 -4 -78 -27 -86 -83 -5 -32 -12 -49 -21 -49 -19 0 -18 46 6 260 11 96 20
183 20 193 0 10 8 17 19 17 19 0 37 -39 97 -208 16 -45 22 -52 39 -47 11 3 34
8 50 11 l31 6 1 84 c1 66 -2 84 -13 84 -18 0 -18 14 2 53 21 39 34 49 51 35 9
-7 22 -7 44 1z m591 -88 l-3 -73 38 7 c58 11 65 11 70 -3 3 -7 -17 -22 -50
-37 l-55 -24 6 -151 c4 -132 3 -150 -10 -145 -18 7 -28 55 -28 131 0 28 -3 71
-6 96 -6 41 -9 44 -30 40 -35 -6 -31 29 6 56 29 22 30 25 30 103 0 71 2 80 18
77 15 -3 17 -14 14 -77z m-2143 45 c9 -11 8 -18 -4 -30 -19 -19 -21 -19 -46
-6 -23 13 -62 -5 -106 -50 -36 -37 -68 -103 -60 -124 10 -27 63 -45 157 -56
51 -6 101 -15 111 -21 24 -12 25 -51 1 -72 -41 -37 -210 -96 -233 -81 -19 11
11 32 64 44 59 14 147 56 147 70 0 15 -14 19 -96 30 -151 21 -184 40 -184 105
0 72 81 162 172 190 56 18 63 18 77 1z m151 -161 l5 -170 20 59 c11 33 34 75
51 93 27 28 38 33 76 33 25 0 50 -6 56 -12 5 -7 12 -78 13 -158 4 -127 2 -145
-12 -148 -20 -4 -29 52 -29 184 0 84 -2 94 -18 94 -30 0 -67 -48 -121 -157
-77 -155 -81 -149 -81 128 0 214 1 230 18 227 15 -3 18 -22 22 -173z m427 43
c6 -7 13 -53 16 -103 4 -49 10 -120 13 -157 6 -57 4 -68 -8 -68 -11 0 -17 16
-22 57 -13 109 -15 111 -48 51 -56 -98 -104 -132 -128 -89 -15 29 -12 71 10
136 47 135 129 221 167 173z m1450 0 c6 -7 13 -53 16 -103 4 -49 10 -120 13
-157 6 -57 4 -68 -9 -68 -11 0 -17 17 -22 68 -9 87 -18 103 -35 61 -21 -50
-88 -129 -110 -129 -43 0 -51 64 -20 155 47 135 129 221 167 173z m-948 -22
c13 -13 21 -32 19 -43 -3 -16 -52 -53 -127 -95 -29 -16 -31 -21 -31 -71 0 -38
5 -59 16 -68 24 -20 80 15 128 79 40 54 66 67 66 32 0 -45 -122 -150 -175
-150 -42 0 -63 25 -71 82 -5 35 -11 48 -26 52 -20 5 -20 5 0 33 10 15 29 50
41 78 31 71 57 95 101 95 26 0 43 -7 59 -24z m1365 3 c49 -38 26 -69 -103
-141 -29 -16 -31 -21 -31 -76 0 -53 2 -60 22 -65 32 -9 77 21 122 81 21 29 45
52 52 52 26 0 14 -37 -26 -83 -102 -116 -195 -117 -207 -2 -4 28 -11 45 -19
45 -20 0 -26 17 -10 33 8 8 28 43 44 79 44 97 98 123 156 77z m-1600 5 c29
-11 17 -32 -23 -39 -22 -3 -47 -15 -55 -24 -19 -21 -36 -111 -36 -194 0 -43
-4 -59 -16 -64 -8 -3 -20 -1 -26 5 -12 12 -58 299 -50 307 16 16 30 0 36 -40
3 -25 9 -66 13 -92 l7 -48 7 53 c4 29 13 66 19 83 19 45 78 71 124 53z"/>
<path d="M4423 4247 c-47 -18 -53 -28 -59 -98 -6 -83 2 -97 47 -74 95 49 161
117 143 146 -8 13 -68 39 -86 38 -7 0 -27 -6 -45 -12z"/>
<path d="M4116 4113 c-3 -27 -8 -77 -12 -112 l-6 -64 28 7 c16 4 37 15 46 24
17 16 16 22 -9 105 -14 48 -30 87 -34 87 -4 0 -10 -21 -13 -47z"/>
<path d="M3377 4062 c-19 -21 -82 -155 -93 -196 -16 -64 46 1 96 101 24 49 37
113 23 113 -6 0 -17 -8 -26 -18z"/>
<path d="M4819 4049 c-24 -35 -89 -177 -89 -196 0 -27 26 -11 52 30 60 94 96
197 69 197 -5 0 -20 -14 -32 -31z"/>
<path d="M3840 4048 c-33 -55 -24 -62 31 -25 43 29 51 57 15 57 -19 0 -32 -9
-46 -32z"/>
<path d="M5212 4053 c-21 -26 -29 -53 -16 -53 21 0 84 46 84 62 0 28 -43 22
-68 -9z"/>
<path d="M693 3833 c282 -288 346 -357 339 -369 -5 -9 -417 -436 -488 -506 -4
-5 365 -8 819 -8 l827 0 0 180 0 180 -360 0 -360 0 0 350 0 350 -476 0 -475 0
174 -177z"/>
<path d="M6530 3660 l0 -350 -360 0 -360 0 0 -180 0 -180 827 0 c454 0 823 3
819 8 -72 71 -483 497 -488 506 -6 11 75 99 345 376 73 74 138 143 146 153 13
16 -10 17 -458 17 l-471 0 0 -350z"/>
<path d="M3270 3187 c0 -57 -3 -67 -20 -72 -11 -3 -20 -13 -20 -21 0 -11 6
-13 20 -9 18 6 20 2 20 -53 0 -80 11 -152 22 -152 6 0 7 43 3 114 l-7 113 23
6 c13 3 33 13 44 22 19 15 18 16 -23 9 l-44 -6 3 53 c2 34 -1 54 -9 57 -9 3
-12 -15 -12 -61z"/>
<path d="M5520 3190 c0 -49 -4 -62 -20 -72 -11 -7 -20 -19 -20 -26 0 -9 7 -11
20 -7 18 6 20 2 20 -47 0 -76 11 -158 21 -158 5 0 6 51 3 114 l-7 113 24 6
c13 3 33 13 44 22 19 16 18 16 -22 11 l-43 -6 0 55 c0 30 -4 55 -10 55 -6 0
-10 -27 -10 -60z"/>
<path d="M3390 3070 c0 -93 4 -170 9 -170 4 0 22 31 39 68 33 74 76 132 97
132 10 0 15 -29 20 -105 4 -58 11 -105 16 -105 13 0 11 187 -1 211 -8 13 -21
19 -45 19 -29 0 -39 -6 -59 -37 -14 -21 -28 -50 -31 -65 -15 -61 -25 -22 -25
97 0 77 -4 125 -10 125 -6 0 -10 -63 -10 -170z"/>
<path d="M4570 3104 c-23 -96 -36 -132 -44 -124 -5 5 -24 54 -41 107 -31 96
-48 121 -59 86 -41 -142 -79 -253 -85 -247 -4 5 -25 64 -46 132 -21 67 -42
122 -45 122 -16 0 -18 -15 -6 -39 7 -14 21 -57 30 -96 26 -109 46 -155 67
-155 14 0 26 24 55 120 21 66 41 120 45 120 4 0 10 -12 13 -27 10 -39 78 -183
87 -183 4 0 15 35 24 78 9 42 25 110 36 149 21 81 23 93 11 93 -5 0 -24 -61
-42 -136z"/>
<path d="M5230 3230 c-14 -4 -40 -14 -57 -23 -40 -21 -40 -21 -47 5 -3 15 -9
19 -15 13 -6 -7 -7 -44 -1 -105 5 -52 10 -123 10 -157 0 -41 4 -63 12 -63 18
0 158 90 158 102 0 10 -14 2 -90 -49 -53 -35 -62 -31 -58 29 3 52 4 53 56 82
70 40 67 56 -4 17 -62 -34 -67 -30 -62 40 3 41 5 44 58 70 30 16 60 30 65 32
20 8 -1 14 -25 7z"/>
<path d="M2537 3216 c-3 -8 -30 -16 -71 -21 -36 -3 -66 -11 -66 -17 0 -10 95
-3 126 9 15 6 20 -17 34 -167 7 -63 16 -119 22 -125 10 -10 9 14 -9 222 l-6
72 34 5 c19 3 51 7 73 10 38 5 53 12 45 20 -2 3 -36 1 -74 -4 -43 -5 -74 -5
-79 1 -14 13 -23 11 -29 -5z"/>
<path d="M2716 3142 c-13 -22 -28 -154 -22 -195 8 -53 25 -63 59 -37 48 38 60
155 22 214 -17 25 -48 35 -59 18z m60 -57 c9 -49 -4 -120 -26 -147 -30 -36
-42 -8 -37 84 6 86 10 98 37 98 14 0 21 -10 26 -35z"/>
<path d="M2896 3123 c-36 -33 -78 -124 -74 -159 2 -15 10 -32 20 -37 24 -16
46 6 84 86 l32 68 7 -56 c4 -30 6 -98 3 -150 -4 -108 -22 -143 -76 -160 -40
-12 -41 -25 -3 -25 39 0 76 45 97 118 14 46 15 80 10 181 -4 68 -12 133 -17
143 -14 26 -50 22 -83 -9z m49 -20 c-3 -16 -21 -55 -39 -88 -56 -102 -92 -76
-42 31 33 71 96 115 81 57z"/>
<path d="M5382 3114 c-41 -49 -78 -164 -63 -193 7 -12 16 -21 20 -21 12 0 58
55 77 93 20 38 34 21 34 -40 0 -23 5 -45 11 -48 13 -9 1 215 -14 233 -16 20
-34 14 -65 -24z m48 -23 c0 -43 -67 -161 -92 -161 -16 0 -8 35 23 100 45 96
69 117 69 61z"/>
<path d="M3102 3133 c-10 -4 -55 -80 -80 -135 -2 -5 3 -8 12 -8 11 0 16 -10
16 -33 0 -43 29 -72 64 -63 26 6 116 88 116 106 0 22 -26 7 -53 -31 -29 -43
-66 -65 -91 -56 -12 5 -16 20 -16 54 0 47 1 49 44 72 25 13 53 32 62 42 16 18
16 20 -1 39 -17 19 -45 24 -73 13z m54 -25 c8 -12 -42 -58 -63 -58 -19 0 -16
14 8 44 22 28 43 33 55 14z"/>
<path d="M3672 3133 c-10 -4 -55 -80 -80 -135 -2 -5 3 -8 12 -8 12 0 16 -10
16 -34 0 -38 21 -66 49 -66 24 0 92 50 115 84 31 49 7 41 -43 -13 -37 -40 -55
-52 -72 -49 -21 3 -24 9 -27 53 -3 50 -3 50 42 74 25 13 53 32 62 42 16 18 16
20 -1 39 -17 19 -45 24 -73 13z m54 -25 c4 -6 -5 -21 -22 -35 -50 -40 -75 -22
-32 24 24 25 43 29 54 11z"/>
<path d="M4712 3128 c-8 -11 -57 -102 -70 -130 -2 -5 3 -8 12 -8 11 0 16 -10
16 -33 0 -43 29 -72 62 -61 32 10 83 50 103 80 31 47 5 38 -44 -15 -37 -40
-55 -52 -72 -49 -21 3 -24 9 -27 49 -3 47 -3 47 54 85 32 22 59 44 61 50 11
33 -72 60 -95 32z m64 -19 c8 -13 -23 -44 -53 -54 -29 -8 -29 5 -2 39 22 27
43 33 55 15z"/>
<path d="M3827 3123 c-5 -10 27 -210 35 -219 16 -15 25 11 31 80 6 89 19 115
58 123 38 7 38 23 -1 23 -40 0 -68 -33 -75 -89 -10 -72 -12 -71 -20 7 -7 66
-17 94 -28 75z"/>
<path d="M4985 2574 c-54 -48 -204 -148 -279 -186 -364 -185 -772 -239 -1149
-153 -201 47 -412 133 -547 224 -53 36 -66 38 -80 12 -12 -23 12 -44 125 -107
166 -92 345 -158 540 -199 107 -23 394 -31 519 -16 337 43 664 180 906 380 30
25 57 47 59 48 9 6 -23 33 -38 33 -9 -1 -34 -17 -56 -36z"/>
<path d="M5040 2364 c-229 -173 -524 -297 -819 -345 -109 -18 -156 -20 -346
-16 -188 4 -237 9 -335 31 -238 53 -475 152 -647 272 l-63 43 -26 -35 -27 -35
24 -17 c150 -107 387 -223 559 -274 249 -73 574 -98 830 -63 359 48 741 218
1000 445 l45 39 -30 25 c-16 14 -32 25 -35 25 -3 0 -61 -43 -130 -95z"/>
</g>
</svg>
