<?xml version="1.0" standalone="no"?>
<!DOCTYPE svg PUBLIC "-//W3C//DTD SVG 20010904//EN"
 "http://www.w3.org/TR/2001/REC-SVG-20010904/DTD/svg10.dtd">
<svg version="1.0" xmlns="http://www.w3.org/2000/svg"
 width="1200.000000pt" height="1200.000000pt" viewBox="0 0 1200.000000 1200.000000"
 preserveAspectRatio="xMidYMid meet">

<g transform="translate(0.000000,1200.000000) scale(0.100000,-0.100000)"
fill="#000000" stroke="none">
<path d="M0 6000 l0 -6000 6000 0 6000 0 0 6000 0 6000 -6000 0 -6000 0 0
-6000z m6982 455 c7 -47 25 -359 33 -592 l5 -163 -24 0 c-14 0 -27 4 -30 9 -3
4 -7 147 -10 317 -2 170 -9 342 -15 383 -12 79 -9 94 17 89 11 -2 19 -18 24
-43z m-167 -19 c39 -16 75 -68 75 -106 -1 -79 -95 -179 -236 -250 -49 -25 -92
-49 -96 -55 -4 -5 -8 -85 -8 -177 0 -139 -2 -168 -14 -168 -20 0 -24 17 -36
164 -5 71 -13 132 -16 135 -10 10 -79 4 -110 -10 l-31 -14 28 -115 c31 -127
34 -156 18 -166 -19 -11 -33 22 -68 161 -6 22 -16 48 -23 58 -12 16 -16 16
-74 -3 -81 -27 -96 -45 -103 -122 -6 -59 -8 -63 -31 -63 -22 0 -25 4 -22 30
22 267 59 616 68 648 8 27 42 20 58 -11 8 -16 42 -102 74 -191 33 -89 63 -165
66 -169 4 -3 31 2 61 12 29 10 63 16 74 13 20 -5 21 -2 21 128 0 126 -1 133
-19 128 -33 -8 -33 16 -2 71 43 74 59 87 79 60 l16 -20 56 23 c64 26 144 30
195 9z m686 -145 c-3 -108 -3 -114 15 -106 29 11 126 37 129 33 1 -2 5 -13 9
-25 6 -19 -2 -25 -75 -54 l-81 -34 7 -223 8 -224 -24 4 c-22 3 -24 9 -31 83
-3 44 -9 137 -13 207 l-7 127 -24 -16 c-32 -20 -54 -10 -54 25 0 24 7 32 45
51 29 15 45 29 44 39 -1 10 -1 66 0 125 l1 108 28 -3 27 -3 -4 -114z m-3013
90 c10 -6 15 -69 19 -260 3 -138 8 -249 11 -246 3 3 18 42 34 87 48 138 103
190 197 186 86 -5 89 -11 93 -263 l3 -210 -25 0 -25 0 -9 208 -9 207 -25 0
c-44 0 -97 -70 -182 -241 -63 -126 -84 -159 -100 -159 -20 0 -20 7 -20 350 0
361 1 365 38 341z m-190 -28 c2 -15 -5 -27 -23 -39 -25 -16 -28 -16 -56 0 -27
16 -31 16 -66 -1 -80 -37 -193 -179 -193 -242 0 -30 38 -69 78 -81 20 -6 95
-18 166 -26 138 -16 181 -32 191 -72 10 -39 -19 -69 -108 -111 -100 -48 -159
-68 -227 -77 -47 -6 -52 -5 -49 12 3 14 27 27 94 49 135 45 181 64 209 86 50
39 29 53 -109 69 -141 16 -217 37 -257 70 -31 26 -33 32 -33 87 1 49 6 68 32
109 74 114 206 196 308 191 33 -2 41 -6 43 -24z m856 -169 c12 -11 16 -36 16
-97 0 -45 7 -131 15 -192 19 -145 19 -194 0 -202 -24 -8 -26 -1 -36 89 -17
162 -23 174 -52 113 -38 -79 -110 -177 -143 -193 -31 -14 -35 -14 -53 2 -45
41 -34 164 28 301 31 69 100 168 128 184 27 16 80 13 97 -5z m2170 0 c12 -12
16 -37 16 -102 0 -48 7 -134 15 -192 19 -140 19 -189 0 -197 -9 -3 -18 -3 -21
-1 -2 3 -10 55 -18 117 -12 101 -20 132 -29 120 -2 -2 -23 -39 -48 -83 -49
-88 -109 -156 -137 -156 -52 0 -74 88 -47 189 32 123 128 291 178 311 35 14
74 11 91 -6z m-1414 -29 c61 -59 35 -98 -122 -185 -84 -47 -88 -54 -88 -156 0
-141 129 -103 244 72 20 32 35 44 52 44 79 0 -50 -171 -173 -231 -52 -25 -119
-22 -140 7 -19 26 -33 82 -33 132 0 40 -1 42 -30 42 -36 0 -38 11 -6 53 13 18
42 70 63 117 52 112 88 144 156 137 35 -3 56 -12 77 -32z m2045 4 c24 -21 35
-40 35 -58 0 -37 -29 -62 -161 -136 -78 -44 -74 -37 -77 -123 -3 -63 -1 -82
13 -95 20 -21 57 -22 93 -3 34 17 109 97 141 149 16 26 30 37 47 37 78 0 -50
-171 -172 -230 -52 -26 -108 -26 -133 -1 -24 24 -41 81 -41 139 0 40 -1 42
-30 42 -23 0 -30 5 -30 19 0 10 7 21 15 25 9 3 36 49 61 103 63 135 89 161
166 162 28 1 46 -7 73 -30z m-2394 1 c40 -22 17 -50 -42 -50 -41 0 -83 -23
-97 -54 -15 -33 -29 -125 -37 -246 -3 -52 -8 -103 -11 -112 -6 -19 -30 -23
-52 -10 -13 9 -86 447 -76 463 3 5 14 9 24 9 23 0 24 -2 45 -170 9 -68 18
-126 21 -129 2 -2 4 22 4 55 0 71 23 169 48 203 31 42 128 65 173 41z"/>
<path d="M6626 6380 c-28 -11 -55 -25 -62 -32 -15 -16 -29 -172 -20 -222 l7
-36 80 41 c103 51 176 114 200 170 10 26 9 32 -10 53 -21 23 -89 47 -128 46
-10 -1 -40 -10 -67 -20z"/>
<path d="M6176 6249 c-6 -19 -26 -235 -26 -287 0 -36 3 -42 21 -42 25 0 56 16
85 42 l22 19 -20 77 c-20 80 -55 180 -69 196 -5 6 -10 3 -13 -5z"/>
<path d="M5059 6098 c-44 -49 -139 -255 -139 -303 0 -43 26 -28 73 43 66 99
105 183 113 241 8 61 -4 66 -47 19z"/>
<path d="M7226 6096 c-14 -19 -41 -65 -60 -103 -70 -139 -94 -223 -62 -223 17
0 84 96 130 188 64 127 58 224 -8 138z"/>
<path d="M5777 6103 c-25 -27 -63 -103 -52 -103 17 0 117 56 136 76 18 19 20
26 9 39 -20 24 -63 18 -93 -12z"/>
<path d="M7820 6093 c-29 -36 -48 -79 -38 -89 7 -7 100 45 127 71 21 20 22 26
11 39 -23 29 -66 20 -100 -21z"/>
</g>
</svg>
