<svg id="visual" viewBox="0 0 960 540" width="960" height="540" xmlns="http://www.w3.org/2000/svg" xmlns:xlink="http://www.w3.org/1999/xlink" version="1.1"><path d="M0 44L120 28L240 44L360 93L480 50L600 33L720 28L840 28L960 17L960 0L840 0L720 0L600 0L480 0L360 0L240 0L120 0L0 0Z" fill="#038373"></path><path d="M0 87L120 179L240 87L360 276L480 125L600 82L720 168L840 125L960 109L960 15L840 26L720 26L600 31L480 48L360 91L240 42L120 26L0 42Z" fill="#008c78"></path><path d="M0 104L120 217L240 120L360 347L480 147L600 125L720 179L840 201L960 185L960 107L840 123L720 166L600 80L480 123L360 274L240 85L120 177L0 85Z" fill="#00957c"></path><path d="M0 163L120 249L240 168L360 368L480 195L600 168L720 195L840 228L960 228L960 183L840 199L720 177L600 123L480 145L360 345L240 118L120 215L0 102Z" fill="#009e80"></path><path d="M0 330L120 309L240 347L360 422L480 336L600 336L720 282L840 341L960 411L960 226L840 226L720 193L600 166L480 193L360 366L240 166L120 247L0 161Z" fill="#00a784"></path><path d="M0 357L120 330L240 390L360 455L480 368L600 357L720 309L840 395L960 417L960 409L840 339L720 280L600 334L480 334L360 420L240 345L120 307L0 328Z" fill="#00b087"></path><path d="M0 411L120 390L240 449L360 482L480 411L600 384L720 379L840 406L960 433L960 415L840 393L720 307L600 355L480 366L360 453L240 388L120 328L0 355Z" fill="#00b98a"></path><path d="M0 422L120 422L240 455L360 514L480 422L600 428L720 422L840 455L960 471L960 431L840 404L720 377L600 382L480 409L360 480L240 447L120 388L0 409Z" fill="#00c38c"></path><path d="M0 541L120 541L240 541L360 541L480 541L600 541L720 541L840 541L960 541L960 469L840 453L720 420L600 426L480 420L360 512L240 453L120 420L0 420Z" fill="#00cc8e"></path></svg>