<svg id="visual" viewBox="0 0 960 540" width="960" height="540" xmlns="http://www.w3.org/2000/svg" xmlns:xlink="http://www.w3.org/1999/xlink" version="1.1"><rect width="960" height="540" fill="#001122"></rect><g><g transform="translate(825 176)"><path d="M0 -53.1L46 -26.6L46 26.6L0 53.1L-46 26.6L-46 -26.6Z" stroke="#5c95a8" fill="none" stroke-width="2"></path></g><g transform="translate(680 423)"><path d="M0 -46L39.8 -23L39.8 23L0 46L-39.8 23L-39.8 -23Z" stroke="#5c95a8" fill="none" stroke-width="2"></path></g><g transform="translate(815 311)"><path d="M0 -40L34.6 -20L34.6 20L0 40L-34.6 20L-34.6 -20Z" stroke="#5c95a8" fill="none" stroke-width="2"></path></g><g transform="translate(551 371)"><path d="M0 -45L39 -22.5L39 22.5L0 45L-39 22.5L-39 -22.5Z" stroke="#5c95a8" fill="none" stroke-width="2"></path></g><g transform="translate(153 487)"><path d="M0 -35L30.3 -17.5L30.3 17.5L0 35L-30.3 17.5L-30.3 -17.5Z" stroke="#5c95a8" fill="none" stroke-width="2"></path></g><g transform="translate(332 92)"><path d="M0 -49L42.4 -24.5L42.4 24.5L0 49L-42.4 24.5L-42.4 -24.5Z" stroke="#5c95a8" fill="none" stroke-width="2"></path></g><g transform="translate(860 25)"><path d="M0 -33L28.6 -16.5L28.6 16.5L0 33L-28.6 16.5L-28.6 -16.5Z" stroke="#5c95a8" fill="none" stroke-width="2"></path></g><g transform="translate(911 373)"><path d="M0 -37L32 -18.5L32 18.5L0 37L-32 18.5L-32 -18.5Z" stroke="#5c95a8" fill="none" stroke-width="2"></path></g><g transform="translate(62 176)"><path d="M0 -42L36.4 -21L36.4 21L0 42L-36.4 21L-36.4 -21Z" stroke="#5c95a8" fill="none" stroke-width="2"></path></g><g transform="translate(739 52)"><path d="M0 -50L43.3 -25L43.3 25L0 50L-43.3 25L-43.3 -25Z" stroke="#5c95a8" fill="none" stroke-width="2"></path></g><g transform="translate(30 488)"><path d="M0 -45L39 -22.5L39 22.5L0 45L-39 22.5L-39 -22.5Z" stroke="#5c95a8" fill="none" stroke-width="2"></path></g><g transform="translate(706 172)"><path d="M0 -44L38.1 -22L38.1 22L0 44L-38.1 22L-38.1 -22Z" stroke="#5c95a8" fill="none" stroke-width="2"></path></g><g transform="translate(461 513)"><path d="M0 -42L36.4 -21L36.4 21L0 42L-36.4 21L-36.4 -21Z" stroke="#5c95a8" fill="none" stroke-width="2"></path></g><g transform="translate(472 100)"><path d="M0 -34L29.4 -17L29.4 17L0 34L-29.4 17L-29.4 -17Z" stroke="#5c95a8" fill="none" stroke-width="2"></path></g><g transform="translate(14 59)"><path d="M0 -33L28.6 -16.5L28.6 16.5L0 33L-28.6 16.5L-28.6 -16.5Z" stroke="#5c95a8" fill="none" stroke-width="2"></path></g><g transform="translate(235 15)"><path d="M0 -35L30.3 -17.5L30.3 17.5L0 35L-30.3 17.5L-30.3 -17.5Z" stroke="#5c95a8" fill="none" stroke-width="2"></path></g><g transform="translate(644 316)"><path d="M0 -39L33.8 -19.5L33.8 19.5L0 39L-33.8 19.5L-33.8 -19.5Z" stroke="#5c95a8" fill="none" stroke-width="2"></path></g><g transform="translate(949 212)"><path d="M0 -47L40.7 -23.5L40.7 23.5L0 47L-40.7 23.5L-40.7 -23.5Z" stroke="#5c95a8" fill="none" stroke-width="2"></path></g><g transform="translate(244 249)"><path d="M0 -50L43.3 -25L43.3 25L0 50L-43.3 25L-43.3 -25Z" stroke="#5c95a8" fill="none" stroke-width="2"></path></g><g transform="translate(407 244)"><path d="M0 -36L31.2 -18L31.2 18L0 36L-31.2 18L-31.2 -18Z" stroke="#5c95a8" fill="none" stroke-width="2"></path></g><g transform="translate(920 486)"><path d="M0 -44L38.1 -22L38.1 22L0 44L-38.1 22L-38.1 -22Z" stroke="#5c95a8" fill="none" stroke-width="2"></path></g><g transform="translate(591 164)"><path d="M0 -43L37.2 -21.5L37.2 21.5L0 43L-37.2 21.5L-37.2 -21.5Z" stroke="#5c95a8" fill="none" stroke-width="2"></path></g><g transform="translate(764 490)"><path d="M0 -48L41.6 -24L41.6 24L0 48L-41.6 24L-41.6 -24Z" stroke="#5c95a8" fill="none" stroke-width="2"></path></g><g transform="translate(323 511)"><path d="M0 -42L36.4 -21L36.4 21L0 42L-36.4 21L-36.4 -21Z" stroke="#5c95a8" fill="none" stroke-width="2"></path></g></g></svg>